<?xml version="1.0" standalone="no"?>
<!DOCTYPE svg PUBLIC "-//W3C//DTD SVG 20010904//EN"
 "http://www.w3.org/TR/2001/REC-SVG-20010904/DTD/svg10.dtd">
<svg version="1.0" xmlns="http://www.w3.org/2000/svg"
 width="612.000000pt" height="612.000000pt" viewBox="0 0 612.000000 612.000000"
 preserveAspectRatio="xMidYMid meet">

<g transform="translate(0.000000,612.000000) scale(0.100000,-0.100000)"
fill="#000000" stroke="none">
<path d="M2886 6047 l-26 -26 0 -424 c0 -323 3 -427 13 -440 6 -9 426 -255
932 -547 506 -293 930 -543 943 -557 l22 -24 0 -1028 c0 -966 1 -1030 18
-1049 21 -24 623 -372 644 -372 8 0 27 9 42 21 l26 20 0 1474 0 1474 -22 25
c-27 28 -2508 1467 -2543 1474 -16 3 -32 -4 -49 -21z"/>
<path d="M1761 5281 c-21 -21 -21 -28 -21 -449 l0 -429 23 -20 c12 -11 429
-255 927 -542 498 -288 917 -536 933 -552 l27 -29 0 -1028 0 -1029 23 -20 c43
-40 613 -363 640 -363 15 0 36 9 47 20 20 20 20 33 20 1485 0 1019 -3 1471
-11 1488 -6 12 -18 28 -27 33 -9 6 -575 334 -1257 729 -726 421 -1253 721
-1272 723 -22 3 -37 -2 -52 -17z"/>
<path d="M646 4519 l-26 -20 0 -1478 0 -1478 22 -20 c33 -30 2515 -1465 2543
-1471 16 -3 32 4 49 21 l26 26 0 1470 0 1470 -22 24 c-27 29 -2527 1477 -2550
1477 -8 0 -27 -9 -42 -21z"/>
</g>
</svg>
